<?xml version="1.0" standalone="no"?>
<!DOCTYPE svg PUBLIC "-//W3C//DTD SVG 20010904//EN"
 "http://www.w3.org/TR/2001/REC-SVG-20010904/DTD/svg10.dtd">
<svg version="1.0" xmlns="http://www.w3.org/2000/svg"
 width="200.000000pt" height="200.000000pt" viewBox="0 0 200.000000 200.000000"
 preserveAspectRatio="xMidYMid meet">

<g transform="translate(0.000000,200.000000) scale(0.100000,-0.100000)"
fill="#000000" stroke="none">
<path d="M1010 1940 c0 -14 -43 -30 -55 -20 -5 4 -17 5 -26 1 -26 -10 -109
-84 -109 -97 0 -7 -16 -21 -35 -33 -19 -11 -35 -27 -35 -35 0 -9 -13 -31 -30
-49 -32 -36 -33 -57 -12 -147 6 -25 14 -75 17 -112 7 -64 6 -68 -13 -68 -33 0
-45 -54 -31 -134 12 -73 37 -103 69 -86 15 8 20 2 30 -38 6 -26 14 -97 17
-158 l6 -111 -30 -6 c-23 -5 -42 -25 -95 -104 -49 -74 -75 -103 -104 -118 -21
-11 -51 -31 -66 -44 -25 -22 -30 -23 -53 -11 -23 13 -28 11 -58 -17 -24 -23
-48 -33 -97 -42 -186 -34 -220 -48 -247 -106 -9 -19 -20 -35 -25 -35 -4 0 -5
-6 -2 -14 3 -7 -2 -16 -10 -19 -14 -5 -16 -31 -16 -172 l0 -165 875 0 875 0 0
88 c0 48 -5 140 -10 205 -7 97 -13 126 -33 160 -42 71 -131 115 -354 176 -25
7 -53 25 -72 47 -17 19 -35 33 -39 30 -4 -2 -4 28 0 67 4 40 7 82 7 94 1 12
12 35 26 52 14 16 28 39 30 49 2 11 9 30 17 42 10 18 10 24 1 27 -8 3 -13 22
-13 44 0 22 -4 38 -9 35 -5 -3 -14 1 -21 9 -14 17 -45 21 -34 4 4 -7 3 -10 -2
-7 -5 2 -26 12 -46 21 -26 12 -38 24 -38 38 0 15 5 19 15 15 8 -3 15 -1 15 5
0 6 7 6 19 -1 23 -12 27 -7 29 35 3 39 25 60 65 60 17 0 42 4 55 8 20 8 22 5
22 -22 0 -17 5 -31 10 -31 6 0 10 19 9 43 -2 41 10 84 37 140 20 40 18 47 -15
58 -23 8 -27 14 -24 37 3 15 7 34 10 42 14 38 13 79 -4 133 -10 31 -21 57 -25
57 -5 0 -8 7 -8 15 0 8 -4 15 -10 15 -5 0 -16 14 -25 30 -9 17 -22 30 -30 30
-8 0 -15 4 -15 8 0 5 -12 15 -27 22 -16 8 -35 20 -44 28 -15 12 -77 23 -137
24 -12 0 -25 4 -28 9 -7 13 -44 11 -44 -1z m277 -296 c-3 -3 3 -16 15 -28 21
-22 38 -58 38 -82 0 -17 -22 -18 -88 -3 -37 7 -52 16 -61 35 -17 38 -14 42 30
49 22 4 43 13 46 21 3 8 10 14 16 14 6 0 8 -3 4 -6z m-168 -88 c-12 -13 -34 8
-25 23 5 8 11 7 21 -2 8 -7 10 -16 4 -21z m272 -81 c14 9 22 -41 9 -64 -18
-34 -26 -24 -26 31 0 28 2 46 4 40 2 -7 8 -10 13 -7z m-197 -138 c38 -71 47
-97 20 -59 -8 12 -20 20 -25 16 -6 -3 -19 3 -30 14 -18 20 -18 28 -10 96 2 14
6 7 45 -67z m209 33 c-8 -29 -51 -60 -82 -60 l-26 1 25 19 c14 11 30 24 36 29
7 6 14 8 17 5 2 -2 10 2 17 11 17 20 19 19 13 -5z m-423 -15 c0 -27 -25 -44
-40 -29 -15 15 0 54 21 54 14 0 19 -7 19 -25z m280 -19 c0 -11 -19 -15 -25 -6
-3 5 1 10 9 10 9 0 16 -2 16 -4z m-15 -260 c17 -12 12 -13 -34 -5 -33 5 -61 4
-72 -2 -15 -7 -17 -6 -13 6 8 20 93 21 119 1z m-25 -112 c13 -32 13 -31 -7
-31 -19 0 -42 24 -43 45 0 23 40 13 50 -14z m3 -609 c-10 -38 -22 -70 -28 -72
-5 -1 -19 15 -29 37 -19 40 -19 41 1 68 12 15 28 26 37 26 9 -1 16 5 16 14 0
11 3 13 11 5 7 -7 5 -30 -8 -78z"/>
<path d="M1325 1251 c-4 -7 -4 -24 0 -39 7 -26 8 -26 17 -6 12 25 -4 66 -17
45z"/>
</g>
</svg>
